<svg xmlns="http://www.w3.org/2000/svg" xmlns:xlink="http://www.w3.org/1999/xlink" xmlns:serif="http://www.serif.com/" width="100%" height="100%" viewBox="0 0 286 288" xml:space="preserve" style="fill-rule:evenodd;clip-rule:evenodd;stroke-linejoin:round;stroke-miterlimit:2;">    <g transform="matrix(3.125,0,0,3.125,0,0)">        <g transform="matrix(1,0,0,1,-1.33252,0)">            <path d="M60.546,79.246C64.272,80.366 66.194,78.991 66.283,75.272C66.589,75.377 66.741,75.395 66.748,75.436C67.278,78.786 68.974,80.488 72.591,79.296C72.542,79.66 72.561,79.846 72.507,79.87C69.311,81.286 68.41,83.471 70.575,86.535C70.174,86.586 70.113,86.613 70.076,86.595C68.781,85.944 67.832,84.2 66.483,84.366C65.274,84.514 64.215,85.872 62.9,86.835C63.304,85.176 64.223,83.556 63.836,82.354C63.484,81.259 61.715,80.616 60.57,79.774C60.562,79.598 60.555,79.423 60.547,79.247L60.546,79.246Z" style="fill:rgb(1,28,57);fill-rule:nonzero;"></path>            <path d="M22.54,86.573C24.78,83.019 23.25,81.134 19.981,79.884C20.072,79.743 20.163,79.603 20.254,79.462C21.221,79.462 22.197,79.383 23.153,79.482C24.372,79.608 25.025,79.215 25.254,77.959C25.423,77.031 25.827,76.146 26.161,75.135C27.178,76.41 26.774,78.514 27.975,79.207C29.088,79.849 30.796,79.467 32.958,79.571C29.49,81.28 27.73,83.314 30.112,86.919C27.641,83.868 25.277,83.698 22.54,86.573L22.54,86.573Z" style="fill:rgb(1,28,57);fill-rule:nonzero;"></path>            <path d="M42.681,91.681C43.125,90.26 44.289,88.818 43.657,87.589C43.097,86.5 41.532,85.926 40.292,84.857C43.872,85.576 46.144,84.583 46.066,80.695C46.962,80.809 46.849,81.405 46.973,81.743C48.101,84.824 48.084,84.83 51.365,84.84C51.686,84.841 52.006,84.84 53.094,84.84C49.837,86.51 47.589,88.237 50.68,92C47.578,90.695 45.467,90.73 42.967,91.732C42.918,91.751 42.846,91.713 42.681,91.681L42.681,91.681Z" style="fill:rgb(1,28,57);fill-rule:nonzero;"></path>            <path d="M80.323,62.979C80.867,62.262 80.93,61.369 81.243,60.436C82.177,61.246 81.828,62.577 82.593,63.363C82.906,63.626 82.95,64.071 83.262,64.337C83.376,64.456 83.5,64.559 83.643,64.643C84.568,65.001 85.838,64.375 86.447,65.622C84.715,67.015 84.211,68.797 84.934,70.968C85.031,71.258 85.136,71.544 85.285,71.969C84.811,71.756 84.477,71.607 84.143,71.457C83.497,71.543 83.268,71.049 82.984,70.63C81.998,69.454 81.01,69.266 79.856,70.476C79.294,71.064 78.545,71.475 77.867,71.975C77.781,71.824 77.665,71.712 77.686,71.644C78.511,69.005 77.714,66.81 75.295,65.057C76.816,64.381 78.468,65.284 79.863,64.477C79.764,63.901 79.975,63.419 80.321,62.979L80.323,62.979Z" style="fill:rgb(1,28,57);fill-rule:nonzero;"></path>            <path d="M16.012,25.7C12.933,27.062 14.612,29.259 15.116,31.199C14.931,31.284 14.76,31.397 14.735,31.37C12.512,29.094 10.294,28.842 7.839,31.669C9.372,28.346 9.158,25.917 5.36,25.026C5.598,24.711 5.652,24.56 5.729,24.549C7.156,24.327 8.945,25.158 9.948,24.132C10.823,23.238 10.913,21.579 11.402,20.099C12.144,21.121 12.156,22.253 12.587,23.217C12.823,23.746 12.739,24.563 13.651,24.582C14.186,24.847 14.76,24.712 15.313,24.709C16.078,24.706 16.084,25.157 16.012,25.7Z" style="fill:rgb(1,28,57);fill-rule:nonzero;"></path>            <path d="M31.054,10.723C30.485,11.208 29.914,11.695 29.345,12.181C28.934,13.136 29.418,14.004 29.605,14.903C29.738,15.541 30.288,16.131 29.843,16.84C27.501,14.742 25.139,13.575 22.704,17.2C22.559,15.898 22.883,15.179 23.23,14.535C24.177,12.773 23.268,11.79 21.814,11.133C21.034,10.781 20.445,10.394 20.225,9.556C20.929,9.136 21.723,9.289 22.432,9.382C23.908,9.577 24.814,9.067 25.219,7.65C25.532,6.914 25.845,6.178 26.196,5.355C27.166,6.598 26.926,8.314 27.923,9.49C27.996,9.521 28.069,9.552 28.143,9.582C28.289,9.655 28.438,9.716 28.595,9.76C29.442,10.012 30.556,9.59 31.055,10.722L31.054,10.723Z" style="fill:rgb(1,28,57);fill-rule:nonzero;"></path>            <path d="M92.231,44.434C92.562,44.581 92.77,44.803 92.503,45.146C92.4,45.279 92.161,45.299 92.008,45.404C90.239,46.615 89.638,48.272 90.204,50.373C90.27,50.617 90.303,50.873 90.319,51.126C90.33,51.304 90.284,51.484 90.262,51.68C87.81,49.804 85.464,49.867 83.224,51.87C83.053,50.881 83.403,50.082 83.766,49.371C84.595,47.741 83.982,46.785 82.507,46.041C81.847,45.708 81.088,45.434 80.756,44.654C81.116,44.417 81.488,44.502 81.86,44.578C83.013,44.77 84.167,45.012 85.3,44.483C85.729,43.103 86.157,41.724 86.619,40.238C87.6,41.459 87.533,43.032 88.333,44.221C88.489,44.28 88.635,44.355 88.774,44.446C89.768,44.685 90.757,44.55 91.747,44.408C91.912,44.34 92.073,44.352 92.23,44.433L92.231,44.434Z" style="fill:rgb(1,28,57);fill-rule:nonzero;"></path>            <path d="M79.843,24.484C80.317,23.044 80.791,21.604 81.354,19.892C81.957,21.54 82.488,22.993 83.02,24.446C84.02,25.298 85.546,23.997 86.441,25.279C84.701,26.689 84.31,28.788 85.267,31.576C83.68,31.098 82.826,29.354 81.496,29.3C80.082,29.242 79.202,30.951 77.862,31.561C77.556,31.405 77.703,31.19 77.777,30.969C78.557,28.668 78.109,26.777 76.433,25.296C77.323,23.995 78.831,25.275 79.844,24.485L79.843,24.484Z" style="fill:rgb(1,28,57);fill-rule:nonzero;"></path>            <path d="M15.943,66.011C12.831,67.391 14.759,69.615 15.113,71.529C14.904,71.603 14.73,71.705 14.696,71.67C12.477,69.414 10.272,69.074 7.989,71.946C8.045,69.739 10.093,67.437 7.07,66.02C6.914,65.422 7.025,65.073 7.763,65.043C8.434,65.016 9.15,65.296 9.778,64.837C10.325,63.413 10.871,61.99 11.445,60.493C11.687,60.857 11.882,61.152 12.077,61.446C12.656,62.244 12.745,63.234 13.122,64.111C13.197,64.265 13.291,64.406 13.407,64.533C13.903,64.841 14.472,64.754 15.01,64.836C15.686,64.939 16.219,65.155 15.943,66.01L15.943,66.011Z" style="fill:rgb(1,28,57);fill-rule:nonzero;"></path>            <path d="M44.821,4.079C45.667,2.919 45.588,1.391 46.446,0C46.832,0.872 47.16,1.61 47.487,2.349C47.941,2.76 47.796,3.439 48.18,3.883C48.27,4.023 48.375,4.151 48.497,4.264C49.268,4.776 51.141,3.974 50.615,6.029C49.162,6.567 48.718,7.434 49.418,8.936C49.743,9.634 50.155,10.414 49.942,11.604C47.751,9.031 45.452,8.768 42.889,11.24C43.72,8.819 44.636,6.623 41.693,5.348C42.19,4.212 43.311,4.63 44.155,4.363C44.307,4.311 44.455,4.247 44.596,4.166C44.671,4.136 44.746,4.108 44.822,4.08L44.821,4.079Z" style="fill:rgb(1,28,57);fill-rule:nonzero;"></path>            <path d="M10.617,45.788C9.61,46.678 7.927,47.23 8.936,49.128C8.456,49.679 9.661,50.498 8.642,50.963C6.848,49.263 5.105,49.166 3.398,51.099C3.25,51.267 2.975,51.323 2.304,51.659C3.016,49.264 4.461,46.901 1.333,45.64C1.952,44.375 3.174,45.127 4.08,44.826C4.325,44.732 4.611,44.697 4.72,44.399C4.873,42.93 5.398,41.592 6.14,40.217C6.675,43.549 8.157,45.475 11.79,44.558C11.831,44.547 11.943,44.632 11.938,44.658C11.921,44.751 11.868,44.838 11.829,44.928C10.495,45.335 9.179,44.986 8.007,45.027C8.563,45.764 10.166,44.128 10.616,45.788L10.617,45.788Z" style="fill:rgb(1,28,57);fill-rule:nonzero;"></path>            <path d="M71.456,10.695C69.12,11.89 68.987,13.642 70.143,15.749C70.317,16.067 70.422,16.465 69.855,16.975C67.791,13.736 65.488,14.335 63.03,16.929C63.634,14.505 65.227,12.029 61.792,10.694C62.403,9.427 63.719,10.076 64.639,9.652C64.77,9.542 64.88,9.415 64.966,9.267C65.259,8.752 65.24,8.101 65.679,7.65C65.985,6.912 66.291,6.173 66.686,5.217C67.182,6.744 67.621,8.092 68.06,9.441C68.165,9.787 68.475,9.699 68.721,9.747C69.663,9.975 70.853,9.493 71.456,10.694L71.456,10.695Z" style="fill:rgb(1,28,57);fill-rule:nonzero;"></path>            <path d="M55.574,45.826C55.574,45.755 55.574,45.684 55.573,45.612C55.56,44.458 54.908,43.779 53.972,43.637C53.802,43.611 53.773,43.513 53.774,43.368C53.777,42.701 53.775,42.033 53.776,41.366C53.777,40.859 53.712,40.358 53.589,39.869C53.285,38.666 52.706,37.616 51.817,36.734C51.006,35.928 50.049,35.381 48.957,35.049C48.55,34.925 48.134,34.901 47.717,34.857L47.461,34.857C47.375,34.892 47.289,34.892 47.204,34.857L46.99,34.857C46.89,34.892 46.79,34.892 46.69,34.857L46.476,34.857C46.133,34.912 45.784,34.915 45.445,35.008C44.1,35.379 42.959,36.071 42.063,37.139C41.079,38.311 40.527,39.655 40.505,41.194C40.495,41.911 40.499,42.629 40.506,43.346C40.508,43.529 40.452,43.607 40.258,43.629C39.605,43.703 39.106,44.023 38.793,44.607C38.605,44.958 38.579,45.343 38.579,45.726C38.574,48.631 38.577,51.535 38.576,54.44C38.576,54.688 38.593,54.935 38.615,55.183C38.674,55.831 39.321,56.702 40.3,56.7C44.818,56.688 49.335,56.691 53.852,56.698C54.704,56.699 55.416,55.993 55.517,55.26C55.551,55.014 55.576,54.768 55.576,54.518C55.573,51.62 55.574,48.723 55.574,45.826ZM50.642,43.683C49.472,43.683 48.302,43.683 47.132,43.683C45.961,43.683 44.791,43.679 43.621,43.687C43.459,43.688 43.421,43.647 43.423,43.489C43.433,42.772 43.419,42.055 43.431,41.338C43.463,39.289 45.178,37.662 47.235,37.719C49.192,37.773 50.78,39.353 50.832,41.315C50.851,42.053 50.829,42.792 50.842,43.53C50.844,43.708 50.749,43.683 50.642,43.683L50.642,43.683Z" style="fill:rgb(49, 133, 156);fill-rule:nonzero;"></path>        </g>    </g></svg>